<svg width="48" height="48" viewBox="0 0 48 48" fill="none" xmlns="http://www.w3.org/2000/svg">
<path d="M39.6482 22.9336L17.1518 9.18536C16.9623 9.06956 16.7454 9.00633 16.5234 9.00217C16.3014 8.99801 16.0822 9.05308 15.8886 9.1617C15.6949 9.27033 15.5336 9.42859 15.4214 9.62021C15.3092 9.81183 15.25 10.0299 15.25 10.252V37.7484C15.25 37.9705 15.3092 38.1885 15.4214 38.3801C15.5336 38.5718 15.6949 38.73 15.8886 38.8386C16.0822 38.9473 16.3014 39.0023 16.5234 38.9982C16.7454 38.994 16.9623 38.9308 17.1518 38.815L39.6482 25.0668C39.8309 24.9551 39.9819 24.7984 40.0866 24.6116C40.1913 24.4249 40.2463 24.2143 40.2463 24.0002C40.2463 23.786 40.1913 23.5755 40.0866 23.3887C39.9819 23.202 39.8309 23.0452 39.6482 22.9336Z" fill="white" fill-opacity="0.64"/>
<rect x="1" y="1" width="46" height="46" rx="23" stroke="white" stroke-opacity="0.64" stroke-width="2"/>
</svg>
